HIERARCHY
ROOT Hips
{
	OFFSET -0.001795 -0.223333 0.028219
	CHANNELS 6 Xposition Yposition Zposition Zrotation Yrotation Xrotation 
	JOINT LeftUpLeg
	{
		OFFSET 0.069520 -0.091406 -0.006815
		CHANNELS 3 Zrotation Yrotation Xrotation
		JOINT LeftLeg
		{
			OFFSET 0.034277 -0.375199 -0.004496
			CHANNELS 3 Zrotation Yrotation Xrotation
			JOINT LeftFoot
			{
				OFFSET -0.013596 -0.397961 -0.043693
				CHANNELS 3 Zrotation Yrotation Xrotation
				JOINT LeftToe
				{
					OFFSET 0.026358 -0.055791 0.119288
					CHANNELS 3 Zrotation Yrotation Xrotation
					End Site
					{
						OFFSET 0.000000 0.000000 0.000000
					}
				}
			}
		}
	}
	JOINT RightUpLeg
	{
		OFFSET -0.067670 -0.090522 -0.004320
		CHANNELS 3 Zrotation Yrotation Xrotation
		JOINT RightLeg
		{
			OFFSET -0.038290 -0.382569 -0.008850
			CHANNELS 3 Zrotation Yrotation Xrotation
			JOINT RightFoot
			{
				OFFSET 0.015774 -0.398415 -0.042312
				CHANNELS 3 Zrotation Yrotation Xrotation
				JOINT RightToe
				{
					OFFSET -0.025372 -0.048144 0.123348
					CHANNELS 3 Zrotation Yrotation Xrotation
					End Site
					{
						OFFSET 0.000000 0.000000 0.000000
					}
				}
			}
		}
	}
	JOINT Spine
	{
		OFFSET -0.002533 0.108963 -0.026696
		CHANNELS 3 Zrotation Yrotation Xrotation
		JOINT Spine1
		{
			OFFSET 0.005487 0.135180 0.001092
			CHANNELS 3 Zrotation Yrotation Xrotation
			JOINT Spine2
			{
				OFFSET 0.001457 0.052922 0.025425
				CHANNELS 3 Zrotation Yrotation Xrotation
				JOINT Neck
				{
					OFFSET -0.002778 0.213870 -0.042857
					CHANNELS 3 Zrotation Yrotation Xrotation
					JOINT Head
					{
						OFFSET 0.005152 0.064970 0.051349
						CHANNELS 3 Zrotation Yrotation Xrotation
						End Site
						{
							OFFSET 0.000000 0.000000 0.000000
						}
					}
				}
				JOINT LeftShoulder
				{
					OFFSET 0.078845 0.121749 -0.034090
					CHANNELS 3 Zrotation Yrotation Xrotation
					JOINT LeftArm
					{
						OFFSET 0.090977 0.030469 -0.008868
						CHANNELS 3 Zrotation Yrotation Xrotation
						JOINT LeftForeArm
						{
							OFFSET 0.259612 -0.012772 -0.027456
							CHANNELS 3 Zrotation Yrotation Xrotation
							JOINT LeftHand
							{
								OFFSET 0.249234 0.008986 -0.001171
								CHANNELS 3 Zrotation Yrotation Xrotation
								End Site
								{
									OFFSET 0.000000 0.000000 0.000000
								}
							}
						}
					}
				}
				JOINT RightShoulder
				{
					OFFSET -0.081759 0.118833 -0.038615
					CHANNELS 3 Zrotation Yrotation Xrotation
					JOINT RightArm
					{
						OFFSET -0.096012 0.032551 -0.009143
						CHANNELS 3 Zrotation Yrotation Xrotation
						JOINT RightForeArm
						{
							OFFSET -0.253742 -0.013329 -0.021401
							CHANNELS 3 Zrotation Yrotation Xrotation
							JOINT RightHand
							{
								OFFSET -0.255298 0.007772 -0.005559
								CHANNELS 3 Zrotation Yrotation Xrotation
								End Site
								{
									OFFSET 0.000000 0.000000 0.000000
								}
							}
						}
					}
				}
			}
		}
	}
}
MOTION
Frames: 11
Frame Time: 0.050000
0.000000 0.959957 0.000000 -3.075470 15.298722 11.670412 10.081747 -0.830961 -7.810241 -7.982450 0.235511 -6.157156 21.991450 34.692292 20.085418 0.000000 0.000000 0.000000 -3.144211 1.045153 -19.696053 3.573249 -0.504756 2.850817 -0.091270 -8.125922 39.957961 0.000000 0.000000 0.000000 -1.587108 -1.737764 26.243929 7.855189 -1.309579 -19.587044 2.387324 -6.479906 26.392505 -5.622766 4.986491 -15.080885 0.000000 0.000000 0.000000 -6.260158 -16.247411 6.370434 -36.387445 -29.266151 1.989988 -49.222212 -67.554009 38.101391 0.000000 0.000000 0.000000 7.099505 20.895036 8.915669 48.535813 28.587768 4.599452 -10.222142 38.792767 -1.347846 0.000000 0.000000 0.000000 
-0.000446 0.959197 0.002282 -3.782644 14.472975 12.022090 10.268839 -0.825728 -8.120183 -6.128390 0.225308 -6.882507 22.769599 35.049142 22.805728 0.000000 0.000000 0.000000 -3.214082 1.083763 -20.273272 5.499846 -0.787283 1.562026 -1.570782 -10.729018 44.579527 0.000000 0.000000 0.000000 -0.565450 -2.019906 26.537995 7.885131 -1.343291 -19.698145 2.947107 -5.905491 26.750992 -7.494202 6.220822 -17.277858 0.000000 0.000000 0.000000 -6.485594 -16.087723 6.333359 -35.135289 -29.186860 1.802684 -59.271054 -69.925531 47.742220 0.000000 0.000000 0.000000 3.413606 20.533587 8.062256 53.222141 29.048598 5.920880 -12.781116 40.341976 -2.166138 0.000000 0.000000 0.000000 
-0.000903 0.957529 0.004651 -3.618119 12.823247 11.632288 10.343341 -0.762520 -7.106924 -6.901337 0.284631 -6.435372 23.272005 35.723255 22.111215 0.000000 0.000000 0.000000 -2.978311 1.166983 -19.552091 5.581974 -0.768314 1.138466 -2.777537 -12.121170 43.201227 0.000000 0.000000 0.000000 -0.658959 -1.823200 26.098644 8.797534 -1.653354 -19.394172 1.741850 -5.162937 27.058452 -6.814732 5.859800 -14.727777 0.000000 0.000000 0.000000 -8.733311 -15.926014 6.494205 -32.034704 -29.350148 1.376103 -56.738766 -69.608623 45.379492 0.000000 0.000000 0.000000 4.777268 19.550164 7.888898 53.326462 29.529743 6.094452 -10.231407 41.142742 -1.350599 0.000000 0.000000 0.000000 
-0.001436 0.957314 0.007291 -3.877947 11.954970 11.863804 10.557159 -0.748225 -6.476954 -6.623058 0.280149 -7.021371 23.026119 35.528237 21.928151 0.000000 0.000000 0.000000 -2.851602 1.233129 -19.754775 6.173789 -0.834722 0.795830 -3.168404 -12.819038 43.956376 0.000000 0.000000 0.000000 -1.190586 -1.628726 26.149808 9.571779 -1.977352 -18.622219 2.047545 -4.901732 26.791189 -7.263943 6.084232 -15.930281 0.000000 0.000000 0.000000 -7.088495 -15.240609 6.063476 -33.307061 -28.115721 1.317138 -59.758586 -70.650633 48.658697 0.000000 0.000000 0.000000 3.619967 19.643664 7.671381 53.768632 29.029514 6.052470 -9.573411 42.177172 -1.218401 0.000000 0.000000 0.000000 
-0.001889 0.956228 0.010041 -3.396507 11.363084 11.974353 9.907493 -0.716109 -6.379673 -6.330571 0.311901 -6.354581 22.769538 35.413419 21.266962 0.000000 0.000000 0.000000 -2.963168 1.237978 -19.788437 5.789476 -0.768809 0.763824 -3.874184 -13.701000 44.317298 0.000000 0.000000 0.000000 -1.080727 -1.608359 26.070912 9.290681 -1.868431 -18.962666 1.742925 -5.179714 27.140355 -7.248733 5.991822 -16.298625 0.000000 0.000000 0.000000 -6.755725 -14.615832 5.842082 -32.571353 -28.395090 1.287215 -55.127813 -70.543228 44.912835 0.000000 0.000000 0.000000 3.752848 19.733198 7.677367 54.324515 28.247666 5.702803 -6.750490 44.643759 -0.214709 0.000000 0.000000 0.000000 
-0.002148 0.956100 0.012485 -3.272166 11.130229 12.082403 9.970938 -0.712747 -6.265282 -6.097414 0.304930 -6.634085 22.631246 35.092241 22.197831 0.000000 0.000000 0.000000 -2.872542 1.259721 -19.795100 5.580425 -0.738543 0.937106 -4.022167 -13.833458 43.730170 0.000000 0.000000 0.000000 -0.971406 -1.623768 26.076410 9.230267 -1.822161 -19.266219 2.145087 -4.956381 27.260438 -7.014825 5.864417 -15.778390 0.000000 0.000000 0.000000 -5.808115 -14.927122 5.872844 -33.213191 -28.007556 1.275409 -47.743644 -69.118518 38.003327 0.000000 0.000000 0.000000 3.910032 19.596157 7.658983 54.238142 27.473690 5.311303 -2.821273 46.638591 1.429160 0.000000 0.000000 0.000000 
-0.002148 0.955757 0.014656 -2.834366 10.910935 12.417349 9.580265 -0.705741 -6.476296 -6.050468 0.314420 -6.399737 22.447005 34.910558 22.230226 0.000000 0.000000 0.000000 -3.354569 1.208239 -20.224039 5.631689 -0.754434 1.584260 -3.858926 -13.606514 42.832666 0.000000 0.000000 0.000000 -0.608955 -1.688509 25.875098 9.196722 -1.789049 -19.501913 2.268871 -4.789135 27.089069 -6.638555 5.611392 -15.610348 0.000000 0.000000 0.000000 -5.975831 -14.908348 5.873323 -32.307561 -27.488173 1.066060 -42.896445 -67.034581 32.902854 0.000000 0.000000 0.000000 4.270827 19.838608 7.827752 54.105397 26.419856 4.797923 -0.208639 48.156195 2.628173 0.000000 0.000000 0.000000 
-0.002144 0.955584 0.016694 -2.503022 11.046552 12.787480 9.174114 -0.712145 -6.880365 -5.967360 0.319665 -6.048744 22.342012 34.862141 21.967719 0.000000 0.000000 0.000000 -3.603788 1.170029 -20.379837 5.688916 -0.770245 1.852953 -4.341837 -13.941780 41.352490 0.000000 0.000000 0.000000 -0.068822 -1.825393 25.663554 9.055923 -1.744605 -19.412558 2.865134 -4.448850 26.397638 -6.220934 5.382375 -14.140661 0.000000 0.000000 0.000000 -6.746875 -15.937504 6.331589 -31.141752 -26.698245 0.793545 -37.903994 -64.419337 27.671444 0.000000 0.000000 0.000000 4.500469 19.933655 7.943111 53.266575 25.632692 4.377021 2.807889 48.955118 4.012313 0.000000 0.000000 0.000000 
-0.002512 0.955772 0.018774 -2.240508 11.298200 12.969206 8.872967 -0.712533 -6.783471 -5.688144 0.310923 -5.983915 21.502638 34.121667 21.156389 0.000000 0.000000 0.000000 -3.793010 1.129130 -20.346755 5.426664 -0.742316 2.274137 -3.577310 -12.873304 39.735343 0.000000 0.000000 0.000000 0.341514 -1.938872 25.505462 9.441069 -1.836989 -19.453325 3.039662 -4.056660 25.900399 -5.977426 5.271269 -13.594145 0.000000 0.000000 0.000000 -7.300219 -16.345303 6.490677 -29.732921 -26.806652 0.701267 -34.645374 -62.326538 24.235324 0.000000 0.000000 0.000000 5.033829 20.442120 8.296872 52.451814 25.085274 4.073205 4.342834 48.980076 4.691480 0.000000 0.000000 0.000000 
-0.003711 0.955888 0.020818 -1.955274 11.482762 13.232359 8.403747 -0.713406 -6.946816 -4.911968 0.296283 -5.770625 20.744752 33.365746 20.859247 0.000000 0.000000 0.000000 -3.890588 1.106868 -20.422053 5.266304 -0.724606 2.507782 -3.593979 -12.732943 38.707913 0.000000 0.000000 0.000000 0.878073 -2.087455 25.383983 9.607555 -1.833510 -19.825323 3.321149 -3.999788 25.410852 -5.725146 5.094284 -13.561944 0.000000 0.000000 0.000000 -7.685166 -16.805283 6.706290 -28.578250 -26.133001 0.483503 -33.046753 -61.289495 22.613394 0.000000 0.000000 0.000000 5.070408 20.821114 8.475861 52.237243 24.610405 3.881311 6.580532 49.369232 5.735434 0.000000 0.000000 0.000000 
-0.005643 0.956174 0.022587 -1.853209 11.276148 13.519519 8.171852 -0.708658 -6.909345 -4.190112 0.283144 -5.744844 19.985822 32.606270 20.538024 0.000000 0.000000 0.000000 -3.977751 1.112611 -20.741064 5.284129 -0.734877 3.078880 -2.724515 -11.602408 37.260381 0.000000 0.000000 0.000000 0.982251 -2.089525 25.228355 9.759318 -1.806369 -20.461420 3.560289 -3.753558 25.387008 -5.515931 4.966193 -13.145906 0.000000 0.000000 0.000000 -7.441638 -16.800820 6.669211 -27.493607 -26.177625 0.387600 -31.504215 -60.028523 21.010654 0.000000 0.000000 0.000000 5.246149 20.943338 8.583476 52.314723 24.538078 3.863723 7.097597 49.882663 6.085532 0.000000 0.000000 0.000000 
